<?xml version="1.0" encoding="utf-8"?>
<!-- Generator: Adobe Illustrator 19.1.0, SVG Export Plug-In . SVG Version: 6.00 Build 0)  -->
<svg version="1.1" id="Layer_1" xmlns="http://www.w3.org/2000/svg" xmlns:xlink="http://www.w3.org/1999/xlink" x="0px" y="0px"
	 viewBox="0 0 640 480" enable-background="new 0 0 640 480" xml:space="preserve">
<path id="ear-left" fill="#010101" d="M174.6,164.3c0-30.3,21.1-54.9,47.2-54.9c26,0,47.2,24.6,47.2,54.9
	c0,30.3-21.1,54.9-47.2,54.9C195.7,219.1,174.6,194.6,174.6,164.3"/>
<path id="ear-right" fill="#010101" d="M371,164.3c0-30.3,21.1-54.9,47.2-54.9c26.1,0,47.2,24.6,47.2,54.9
	c0,30.3-21.1,54.9-47.2,54.9C392.2,219.1,371,194.6,371,164.3"/>
<path id="ear-inner-left" fill="#FFCCCC" d="M194.7,164.3c0-17.7,12.3-32.1,27.6-32.1c15.2,0,27.6,14.4,27.6,32.1
	c0,17.7-12.4,32.1-27.6,32.1C207,196.3,194.7,182,194.7,164.3"/>
<path id="ear-inner-right_1_" fill="#FFCCCC" d="M391.1,164.3c0-17.7,12.3-32.1,27.6-32.1c15.2,0,27.6,14.4,27.6,32.1
	c0,17.7-12.3,32.1-27.6,32.1C403.4,196.3,391.1,182,391.1,164.3"/>
<path id="head" fill="#BBBBBB" d="M449.6,250.7c0,66.3-68.1,120-129.6,120c-55.4,0-129.6-53.7-129.6-120c0-66.3,58-120,129.6-120
	C391.5,130.7,449.6,184.4,449.6,250.7"/>
<path id="face" fill="#EEEEEE" d="M320,120.6c-72.2,0-130.7,53.3-130.7,119c0,65.7,74.9,119,130.7,119c62,0,130.7-53.3,130.7-119
	C450.7,173.9,392.2,120.6,320,120.6z M342,328.5c-10.6,0-19.3-5.4-20.6-12.4c-1.3,7-10,12.4-20.6,12.4c-11.5,0-20.8-6.4-20.8-14.3
	c0-0.6,0.1-1.2,0.2-1.7c1.3,7.1,10,12.5,20.6,12.5c10.4,0,19-5.3,20.5-12.2c0-0.1,0-0.2,0-0.3c0,0,0,0,0,0.1c0,0,0-0.1,0-0.1
	c0,0.1,0,0.2,0.1,0.3c1.5,6.9,10.1,12.2,20.5,12.2c10.6,0,19.3-5.5,20.6-12.5c0.1,0.6,0.2,1.2,0.2,1.7
	C362.8,322.1,353.5,328.5,342,328.5z"/>
<path id="eye-bg-left" fill="#010101" d="M284.6,220.6c19,8.7,24.5,30.4,12.3,48.5c-12.3,18.1-37.6,25.7-56.6,17
	c-19-8.7-24.5-30.4-12.3-48.5C240.2,219.5,265.5,211.9,284.6,220.6"/>
<path id="eye-bg-right" fill="#010101" d="M358.4,220.6c-19,8.7-24.5,30.4-12.3,48.5c12.3,18.1,37.6,25.7,56.6,17
	c19-8.7,24.5-30.4,12.3-48.5C402.8,219.5,377.4,211.9,358.4,220.6"/>
<path id="eye-color-right" fill="#594A42" d="M407,253.3c0,14.6-11.8,26.4-26.4,26.4c-14.6,0-26.4-11.8-26.4-26.4
	c0-14.6,11.8-26.4,26.4-26.4C395.2,226.9,407,238.7,407,253.3"/>
<path id="eye-color-left" fill="#594A42" d="M288.8,253.3c0,14.6-11.8,26.4-26.4,26.4c-14.6,0-26.4-11.8-26.4-26.4
	c0-14.6,11.8-26.4,26.4-26.4C276.9,226.9,288.8,238.7,288.8,253.3"/>
<path id="eye-pupil-bg-left" fill="#010101" d="M284.8,256.3c0,12.4-10.1,22.5-22.5,22.5c-12.4,0-22.5-10.1-22.5-22.5
	c0-12.4,10.1-22.5,22.5-22.5C274.8,233.9,284.8,243.9,284.8,256.3"/>
<path id="eye-pupil-bg-right" fill="#010101" d="M403.1,256.3c0,12.4-10.1,22.5-22.5,22.5c-12.4,0-22.5-10.1-22.5-22.5
	c0-12.4,10.1-22.5,22.5-22.5C393,233.9,403.1,243.9,403.1,256.3"/>
<path id="eye-pupil-left" fill="#E6E7E8" d="M259.3,260.3c0,3.8-3.1,6.9-6.9,6.9c-3.8,0-6.9-3.1-6.9-6.9c0-3.8,3.1-6.9,6.9-6.9
	C256.2,253.4,259.3,256.5,259.3,260.3z"/>
<path id="eye-pupil-right" fill="#E6E7E8" d="M377.5,260.3c0,3.8-3.1,6.9-6.9,6.9c-3.8,0-6.9-3.1-6.9-6.9c0-3.8,3.1-6.9,6.9-6.9
	C374.4,253.4,377.5,256.5,377.5,260.3z"/>
<path id="nose" fill="#010101" d="M339.4,295.4c0,4.8-8,14.3-18,14.3c-9.9,0-18-9.4-18-14.3c0-4.8,8-8.7,18-8.7
	C331.4,286.6,339.4,290.5,339.4,295.4z"/>
<path id="nose-glare" fill="#797778" d="M324.1,295.1c0,1.8-2.5,3.2-5.6,3.2c-3.1,0-5.6-1.5-5.6-3.2c0-1.7,2.5-3.2,5.6-3.2
	C321.6,291.9,324.1,293.4,324.1,295.1z"/>
</svg>
