<?xml version="1.0" encoding="utf-8"?>
<!-- Generator: Adobe Illustrator 16.0.0, SVG Export Plug-In . SVG Version: 6.00 Build 0)  -->
<!DOCTYPE svg PUBLIC "-//W3C//DTD SVG 1.1//EN" "http://www.w3.org/Graphics/SVG/1.1/DTD/svg11.dtd">
<svg version="1.1" id="Layer_1" xmlns="http://www.w3.org/2000/svg" xmlns:xlink="http://www.w3.org/1999/xlink" x="0px" y="0px"
	 width="864px" height="864px" viewBox="0 0 864 864" enable-background="new 0 0 864 864" xml:space="preserve">
<path fill="#BBBBBB" d="M815.713,160.667c0,66.256-68.091,119.974-129.555,119.974c-55.358,0-129.558-53.718-129.558-119.974
	c0-66.265,57.998-119.971,129.558-119.971C757.705,40.696,815.713,94.402,815.713,160.667"/>
<path fill="#010101" d="M51.596,105.795c0-30.283,21.131-54.861,47.169-54.861c26.047,0,47.189,24.579,47.189,54.861
	c0,30.309-21.143,54.874-47.189,54.874C72.727,160.668,51.596,136.104,51.596,105.795"/>
<path fill="#010101" d="M243.768,105.795c0-30.283,21.131-54.861,47.168-54.861c26.061,0,47.19,24.579,47.19,54.861
	c0,30.309-21.13,54.874-47.19,54.874C264.898,160.668,243.768,136.104,243.768,105.795"/>
<path fill="#FFCCCC" d="M71.645,218.545c0-17.692,12.345-32.051,27.557-32.051c15.217,0,27.569,14.358,27.569,32.051
	c0,17.707-12.352,32.058-27.569,32.058C83.99,250.603,71.645,236.252,71.645,218.545"/>
<path fill="#FFCCCC" d="M263.816,215.435c0-17.692,12.345-32.051,27.557-32.051c15.224,0,27.568,14.359,27.568,32.051
	c0,17.707-12.346,32.057-27.568,32.057C276.161,247.492,263.816,233.141,263.816,215.435"/>
<path fill="#EEEEEE" d="M686.158,322.347c-72.203,0-130.724,53.285-130.724,119.03c0,65.736,74.866,119.031,130.724,119.031
	c62.017,0,130.721-53.295,130.721-119.031C816.879,375.632,758.35,322.347,686.158,322.347z M708.185,530.236
	c-10.56,0-19.257-5.429-20.562-12.443c-1.308,7.016-10.003,12.443-20.562,12.443c-11.465,0-20.757-6.39-20.757-14.271
	c0-0.592,0.069-1.174,0.172-1.746c1.256,7.056,9.982,12.521,20.585,12.521c10.425,0,19.019-5.291,20.495-12.176
	c0.018-0.115,0.028-0.23,0.049-0.347c0.006,0.023,0.014,0.047,0.02,0.074c0.004-0.027,0.013-0.051,0.018-0.074
	c0.021,0.115,0.032,0.23,0.051,0.349c1.479,6.885,10.071,12.174,20.495,12.174c10.602,0,19.33-5.467,20.587-12.521
	c0.103,0.572,0.172,1.154,0.172,1.746C728.942,523.848,719.646,530.236,708.185,530.236z"/>
<path fill="#010101" d="M144.488,408.652c19.018,8.695,24.516,30.38,12.253,48.461c-12.265,18.069-37.621,25.678-56.639,16.992
	c-19.041-8.695-24.528-30.392-12.265-48.463C100.091,407.562,125.447,399.966,144.488,408.652"/>
<path fill="#010101" d="M227.165,408.652c-19.019,8.695-24.505,30.38-12.253,48.461c12.265,18.069,37.62,25.678,56.638,16.992
	c19.042-8.695,24.528-30.392,12.264-48.463C271.562,407.562,246.206,399.966,227.165,408.652"/>
<path fill="#594A42" d="M258.946,537.319c0,14.604-11.836,26.44-26.428,26.44c-14.605,0-26.429-11.836-26.429-26.44
	c0-14.594,11.823-26.429,26.429-26.429C247.11,510.892,258.946,522.727,258.946,537.319"/>
<path fill="#594A42" d="M143.063,537.319c0,14.604-11.836,26.44-26.428,26.44c-14.605,0-26.428-11.836-26.428-26.44
	c0-14.594,11.823-26.429,26.428-26.429C131.228,510.892,143.063,522.727,143.063,537.319"/>
<path fill="#010101" d="M139.429,615.064c0,12.408-10.066,22.461-22.461,22.461c-12.42,0-22.487-10.053-22.487-22.461
	s10.067-22.474,22.487-22.474C129.363,592.592,139.429,602.656,139.429,615.064"/>
<path fill="#010101" d="M254.672,615.064c0,12.408-10.077,22.461-22.487,22.461c-12.407,0-22.46-10.053-22.46-22.461
	s10.053-22.474,22.46-22.474C244.595,592.592,254.672,602.656,254.672,615.064"/>
<path fill="#E6E7E8" d="M130.475,673.116c0,3.818-3.101,6.907-6.923,6.907c-3.817,0-6.917-3.089-6.917-6.907
	c0-3.823,3.1-6.92,6.917-6.92C127.375,666.196,130.475,669.293,130.475,673.116z"/>
<path fill="#E6E7E8" d="M245.182,673.116c0,3.818-3.097,6.907-6.923,6.907c-3.811,0-6.905-3.089-6.905-6.907
	c0-3.823,3.095-6.92,6.905-6.92C242.085,666.196,245.182,669.293,245.182,673.116z"/>
<path fill="#010101" d="M475.446,667.667c0,4.839-8.047,14.274-17.972,14.274c-9.924,0-17.969-9.437-17.969-14.274
	c0-4.831,8.045-8.735,17.969-8.735C467.399,658.932,475.446,662.836,475.446,667.667z"/>
<path fill="#797778" d="M463.082,711.908c0,1.756-2.511,3.227-5.61,3.227c-3.098,0-5.601-1.471-5.601-3.227
	c0-1.742,2.503-3.176,5.601-3.176C460.571,708.732,463.082,710.166,463.082,711.908z"/>
</svg>
